<?xml version="1.0" encoding="utf-8"?>
<!-- Generator: Adobe Illustrator 16.0.0, SVG Export Plug-In . SVG Version: 6.00 Build 0)  -->
<!DOCTYPE svg PUBLIC "-//W3C//DTD SVG 1.1//EN" "http://www.w3.org/Graphics/SVG/1.1/DTD/svg11.dtd">
<svg version="1.1" id="Layer_1" xmlns="http://www.w3.org/2000/svg" xmlns:xlink="http://www.w3.org/1999/xlink" x="0px" y="0px"
	 width="500px" height="383.572px" viewBox="0 0 500 383.572" enable-background="new 0 0 500 383.572" xml:space="preserve">
<g>
	<g>
		<path fill="#ECF3FE" d="M140.839,362.075c3.081,2.268,6.238,4.456,9.463,6.566h240.042c2.941-2.351,5.821-4.818,8.628-7.407
			c57.19-52.751,80.583-151.353,48.043-190.737c-23.8-28.806-65.039-4.841-106.672-45.374
			c-36.933-35.952-28.954-70.005-56.188-84.025C224.529,10.403,64.594,80.955,54.523,200.746
			C46.935,291.008,130.148,354.207,140.839,362.075z"/>
		<g>
			<path fill="#52D1BD" d="M87.466,108.173c-0.387,0-0.764-0.19-0.988-0.54c-0.348-0.544-0.189-1.269,0.356-1.617
				c0.826-0.529,1.675-1.053,2.521-1.557c0.556-0.331,1.273-0.148,1.605,0.407c0.33,0.556,0.148,1.274-0.408,1.605
				c-0.826,0.492-1.652,1.002-2.457,1.518C87.899,108.113,87.681,108.173,87.466,108.173z"/>
			<path fill="#52D1BD" d="M132.688,252.695c-0.793,0-1.601-0.012-2.399-0.035c-0.646-0.019-1.155-0.559-1.135-1.205
				c0.019-0.646,0.547-1.15,1.205-1.135c1.92,0.057,3.854,0.043,5.754-0.04c0.645-0.03,1.191,0.472,1.221,1.118
				c0.027,0.646-0.473,1.193-1.119,1.221C135.049,252.669,133.861,252.695,132.688,252.695z M124.498,252.271
				c-0.039,0-0.081-0.002-0.124-0.006c-1.97-0.206-3.944-0.487-5.868-0.837c-0.634-0.116-1.058-0.725-0.941-1.362
				c0.115-0.636,0.725-1.058,1.361-0.942c1.864,0.339,3.78,0.612,5.693,0.811c0.642,0.067,1.107,0.643,1.043,1.286
				C125.599,251.823,125.09,252.271,124.498,252.271z M141.984,252.146c-0.584,0-1.09-0.437-1.161-1.032
				c-0.076-0.642,0.382-1.225,1.024-1.302c1.909-0.228,3.818-0.531,5.678-0.9c0.632-0.127,1.252,0.285,1.376,0.919
				c0.128,0.634-0.286,1.251-0.919,1.377c-1.919,0.381-3.888,0.694-5.859,0.929C142.078,252.143,142.03,252.146,141.984,252.146z
				 M113.021,250.177c-0.101,0-0.201-0.013-0.302-0.04c-1.933-0.513-3.842-1.108-5.672-1.766c-0.609-0.219-0.924-0.889-0.707-1.498
				c0.22-0.609,0.89-0.926,1.5-0.706c1.769,0.636,3.612,1.21,5.48,1.707c0.625,0.166,0.995,0.808,0.83,1.432
				C114.011,249.831,113.538,250.177,113.021,250.177z M153.432,249.862c-0.511,0-0.979-0.335-1.127-0.85
				c-0.176-0.621,0.184-1.27,0.806-1.447c1.769-0.506,3.518-1.085,5.196-1.72l0.245-0.094c0.604-0.232,1.281,0.07,1.512,0.673
				c0.233,0.604-0.068,1.281-0.672,1.513l-0.255,0.097c-1.739,0.659-3.55,1.258-5.383,1.782
				C153.646,249.846,153.537,249.862,153.432,249.862z M102.044,246.214c-0.167,0-0.337-0.036-0.496-0.111
				c-1.825-0.856-3.597-1.8-5.261-2.803c-0.554-0.333-0.732-1.053-0.398-1.607c0.334-0.554,1.053-0.732,1.607-0.398
				c1.596,0.962,3.293,1.866,5.045,2.688c0.586,0.275,0.836,0.972,0.563,1.557C102.904,245.965,102.484,246.214,102.044,246.214z
				 M164.318,245.676c-0.432,0-0.846-0.24-1.05-0.653c-0.286-0.58-0.048-1.282,0.53-1.568c1.706-0.842,3.392-1.776,5.01-2.774
				c0.551-0.339,1.271-0.168,1.611,0.382s0.168,1.271-0.382,1.611c-1.681,1.037-3.431,2.006-5.202,2.881
				C164.671,245.636,164.494,245.676,164.318,245.676z M92.071,240.174c-0.249,0-0.503-0.08-0.717-0.245
				c-1.603-1.242-3.114-2.575-4.489-3.963c-0.456-0.459-0.453-1.201,0.007-1.656c0.457-0.455,1.2-0.452,1.654,0.007
				c1.306,1.316,2.738,2.581,4.261,3.76c0.512,0.396,0.605,1.131,0.21,1.642C92.767,240.018,92.42,240.174,92.071,240.174z
				 M174.243,239.555c-0.354,0-0.706-0.161-0.935-0.467c-0.389-0.516-0.285-1.25,0.23-1.639c1.51-1.137,2.998-2.366,4.419-3.652
				c0.479-0.433,1.22-0.397,1.654,0.083c0.434,0.479,0.396,1.22-0.084,1.654c-1.474,1.333-3.016,2.607-4.581,3.786
				C174.736,239.479,174.49,239.555,174.243,239.555z M83.896,231.89c-0.358,0-0.711-0.165-0.942-0.475
				c-1.199-1.624-2.271-3.34-3.189-5.099c-0.299-0.574-0.075-1.281,0.498-1.58c0.574-0.299,1.279-0.075,1.578,0.498
				c0.86,1.652,1.87,3.263,2.998,4.79c0.384,0.52,0.273,1.253-0.248,1.637C84.383,231.816,84.139,231.89,83.896,231.89z
				 M182.9,231.736c-0.285,0-0.572-0.104-0.797-0.314c-0.473-0.441-0.5-1.181-0.059-1.655c1.282-1.379,2.543-2.846,3.741-4.361
				c0.403-0.506,1.138-0.592,1.645-0.191c0.508,0.401,0.593,1.138,0.191,1.645c-1.237,1.564-2.536,3.079-3.865,4.504
				C183.527,231.61,183.214,231.736,182.9,231.736z M98.053,223.343c-0.021,0-0.043-0.001-0.065-0.002
				c-1.976-0.108-3.979-0.354-5.952-0.731c-0.633-0.121-1.051-0.734-0.928-1.369c0.119-0.635,0.732-1.053,1.368-0.93
				c1.87,0.357,3.767,0.59,5.64,0.693c0.646,0.035,1.142,0.587,1.105,1.232C99.186,222.86,98.67,223.343,98.053,223.343z
				 M103.887,223.232c-0.596,0-1.105-0.452-1.164-1.057c-0.063-0.644,0.408-1.216,1.052-1.279c1.926-0.188,3.784-0.536,5.522-1.036
				c0.621-0.178,1.271,0.18,1.449,0.802c0.179,0.621-0.181,1.27-0.802,1.448c-1.876,0.54-3.876,0.915-5.943,1.117
				C103.961,223.229,103.924,223.232,103.887,223.232z M190.151,222.588c-0.227,0-0.454-0.065-0.654-0.201
				c-0.536-0.362-0.676-1.09-0.314-1.625c1.058-1.566,2.086-3.209,3.055-4.884c0.322-0.56,1.039-0.751,1.6-0.427
				c0.56,0.323,0.751,1.04,0.426,1.6c-0.995,1.722-2.052,3.412-3.141,5.022C190.896,222.407,190.527,222.588,190.151,222.588z
				 M78.505,221.579c-0.483,0-0.938-0.304-1.105-0.788c-0.554-1.599-1.032-3.269-1.424-4.971c-0.139-0.033-0.273-0.093-0.397-0.179
				c-1.604-1.118-3.178-2.368-4.685-3.714c-0.482-0.431-0.524-1.171-0.093-1.653c0.431-0.482,1.173-0.523,1.653-0.093
				c1.392,1.245,2.846,2.402,4.325,3.442c0.607-0.086,1.182,0.309,1.31,0.915c0.401,1.884,0.913,3.729,1.522,5.486
				c0.213,0.611-0.112,1.278-0.722,1.49C78.761,221.558,78.633,221.579,78.505,221.579z M86.611,221.154
				c-0.125,0-0.254-0.02-0.379-0.064c-1.869-0.639-3.729-1.431-5.523-2.355c-0.574-0.296-0.8-1.001-0.505-1.576
				c0.296-0.576,1.002-0.802,1.576-0.506c1.694,0.872,3.447,1.62,5.209,2.222c0.611,0.209,0.938,0.875,0.729,1.486
				C87.551,220.848,87.098,221.154,86.611,221.154z M115.024,219.963c-0.416,0-0.819-0.222-1.031-0.614
				c-0.308-0.568-0.095-1.279,0.472-1.586c1.595-0.862,3.086-1.903,4.437-3.094l0.112-0.098c0.482-0.431,1.223-0.388,1.65,0.094
				c0.431,0.482,0.39,1.222-0.092,1.653l-0.123,0.109c-1.482,1.307-3.121,2.45-4.869,3.396
				C115.403,219.918,115.211,219.963,115.024,219.963z M196.007,212.484c-0.173,0-0.351-0.039-0.519-0.122
				c-0.58-0.286-0.814-0.989-0.528-1.568c0.841-1.702,1.648-3.469,2.397-5.251c0.251-0.596,0.936-0.875,1.532-0.625
				c0.597,0.25,0.876,0.937,0.625,1.533c-0.768,1.826-1.592,3.637-2.456,5.382C196.854,212.244,196.438,212.484,196.007,212.484z
				 M123.699,212.29c-0.24,0-0.482-0.074-0.691-0.228c-0.52-0.383-0.633-1.116-0.248-1.637c1.093-1.487,2.072-3.106,2.906-4.813
				c0.283-0.581,0.986-0.821,1.566-0.538c0.58,0.284,0.82,0.985,0.537,1.566c-0.895,1.833-1.946,3.574-3.125,5.174
				C124.416,212.125,124.061,212.29,123.699,212.29z M76.067,210.179c-0.598,0-1.108-0.456-1.165-1.063
				c-0.139-1.526-0.21-3.065-0.21-4.575c0-0.469,0.007-0.941,0.021-1.402c0.019-0.647,0.557-1.156,1.203-1.137
				c0.647,0.019,1.154,0.558,1.137,1.204c-0.014,0.44-0.019,0.889-0.019,1.335c0,1.438,0.066,2.905,0.201,4.359
				c0.06,0.644-0.415,1.214-1.057,1.273C76.14,210.177,76.104,210.179,76.067,210.179z M67.541,208.096
				c-0.318,0-0.639-0.131-0.869-0.388c-1.307-1.453-2.57-3.008-3.756-4.624c-0.383-0.521-0.271-1.253,0.249-1.636
				c0.521-0.383,1.255-0.271,1.637,0.251c1.142,1.554,2.356,3.049,3.61,4.444c0.432,0.481,0.393,1.221-0.088,1.653
				C68.101,207.997,67.82,208.096,67.541,208.096z M128.814,201.851c-0.107,0-0.216-0.014-0.324-0.045
				c-0.621-0.178-0.98-0.826-0.803-1.448c0.526-1.839,0.873-3.694,1.035-5.515c0.057-0.644,0.624-1.118,1.268-1.063
				c0.646,0.056,1.122,0.624,1.064,1.269c-0.174,1.969-0.551,3.972-1.116,5.954C129.791,201.516,129.323,201.851,128.814,201.851z
				 M200.542,201.715c-0.13,0-0.26-0.022-0.389-0.067c-0.609-0.215-0.931-0.884-0.717-1.493c0.644-1.819,1.236-3.671,1.764-5.503
				c0.178-0.621,0.825-0.981,1.45-0.801c0.622,0.179,0.98,0.828,0.8,1.449c-0.539,1.876-1.146,3.772-1.803,5.635
				C201.476,201.414,201.023,201.715,200.542,201.715z M60.625,198.699c-0.397,0-0.785-0.202-1.006-0.568
				c-1.011-1.683-1.964-3.441-2.832-5.223c-0.283-0.581-0.041-1.282,0.541-1.565c0.58-0.283,1.281-0.041,1.563,0.541
				c0.84,1.72,1.758,3.417,2.735,5.041c0.334,0.554,0.154,1.274-0.401,1.607C61.039,198.645,60.83,198.699,60.625,198.699z
				 M76.434,198.531c-0.063,0-0.128-0.005-0.191-0.016c-0.639-0.104-1.07-0.707-0.965-1.345c0.332-2.027,0.809-3.993,1.416-5.847
				c0.202-0.614,0.863-0.948,1.477-0.748c0.615,0.201,0.95,0.863,0.748,1.477c-0.569,1.739-1.019,3.589-1.33,5.497
				C77.492,198.124,76.997,198.531,76.434,198.531z M129.766,190.288c-0.575,0-1.077-0.426-1.156-1.012
				c-0.258-1.88-0.747-3.669-1.451-5.315c-0.256-0.594,0.02-1.282,0.614-1.537c0.595-0.255,1.282,0.021,1.536,0.615
				c0.789,1.84,1.334,3.832,1.62,5.92c0.086,0.641-0.361,1.231-1.002,1.318C129.873,190.284,129.819,190.288,129.766,190.288z
				 M55.514,188.208c-0.471,0-0.914-0.287-1.093-0.753c-0.714-1.864-1.342-3.764-1.871-5.646c-0.177-0.623,0.187-1.269,0.81-1.444
				c0.62-0.173,1.268,0.188,1.442,0.81c0.512,1.814,1.119,3.645,1.807,5.443c0.23,0.604-0.071,1.28-0.675,1.512
				C55.795,188.183,55.652,188.208,55.514,188.208z M80.105,187.5c-0.189,0-0.382-0.046-0.56-0.143
				c-0.569-0.309-0.778-1.02-0.468-1.588c0.989-1.814,2.146-3.499,3.442-5.007c0.421-0.49,1.159-0.546,1.65-0.125
				s0.546,1.16,0.126,1.651c-1.188,1.383-2.253,2.931-3.162,4.602C80.922,187.279,80.521,187.5,80.105,187.5z M125.173,179.721
				c-0.331,0-0.66-0.14-0.891-0.413c-1.182-1.39-2.571-2.594-4.132-3.579c-0.545-0.346-0.709-1.068-0.362-1.615
				c0.345-0.547,1.067-0.709,1.614-0.365c1.76,1.112,3.328,2.472,4.664,4.043c0.418,0.493,0.357,1.232-0.136,1.65
				C125.711,179.63,125.441,179.721,125.173,179.721z M87.682,178.731c-0.359,0-0.715-0.165-0.945-0.477
				c-0.382-0.521-0.271-1.254,0.251-1.637c1.564-1.15,3.32-2.186,5.218-3.079c0.586-0.275,1.285-0.024,1.561,0.561
				c0.272,0.584,0.022,1.282-0.563,1.557c-1.764,0.829-3.387,1.787-4.829,2.848C88.166,178.658,87.922,178.731,87.682,178.731z
				 M52.37,176.969c-0.558,0-1.052-0.4-1.152-0.969c-0.036-0.211-0.072-0.422-0.107-0.633c-0.284-1.739-0.487-3.519-0.605-5.289
				c-0.041-0.645,0.445-1.203,1.091-1.245c0.652-0.048,1.204,0.446,1.246,1.091c0.111,1.696,0.307,3.4,0.579,5.066
				c0.033,0.201,0.068,0.404,0.104,0.606c0.111,0.637-0.313,1.244-0.951,1.355C52.505,176.963,52.437,176.969,52.37,176.969z
				 M98.174,173.734c-0.512,0-0.98-0.337-1.126-0.854c-0.176-0.622,0.187-1.269,0.81-1.444c1.948-0.549,3.938-0.939,5.914-1.159
				c0.643-0.072,1.222,0.391,1.292,1.034c0.072,0.643-0.391,1.221-1.033,1.293c-1.851,0.206-3.712,0.571-5.539,1.085
				C98.385,173.72,98.277,173.734,98.174,173.734z M115.472,173.516c-0.113,0-0.227-0.016-0.339-0.05
				c-1.716-0.517-3.561-0.848-5.483-0.986c-0.646-0.046-1.13-0.606-1.084-1.251c0.047-0.645,0.608-1.128,1.252-1.084
				c2.095,0.151,4.108,0.514,5.989,1.079c0.619,0.187,0.971,0.84,0.784,1.459C116.438,173.189,115.973,173.516,115.472,173.516z
				 M51.599,165.333c-0.017,0-0.03,0-0.047-0.001c-0.647-0.025-1.149-0.57-1.125-1.216c0.077-1.964,0.26-3.961,0.538-5.933
				c0.09-0.641,0.678-1.086,1.322-0.996c0.641,0.091,1.088,0.683,0.996,1.323c-0.269,1.894-0.443,3.812-0.516,5.698
				C52.742,164.84,52.224,165.333,51.599,165.333z M53.225,153.781c-0.092,0-0.185-0.01-0.276-0.033
				c-0.628-0.152-1.015-0.784-0.862-1.414c0.461-1.904,1.021-3.826,1.665-5.712c0.21-0.612,0.874-0.938,1.486-0.729
				c0.611,0.209,0.938,0.875,0.728,1.487c-0.62,1.819-1.16,3.671-1.604,5.505C54.231,153.421,53.752,153.781,53.225,153.781z
				 M56.989,142.732c-0.158,0-0.319-0.033-0.472-0.101c-0.592-0.262-0.859-0.953-0.597-1.544c0.792-1.788,1.677-3.579,2.63-5.322
				c0.31-0.568,1.022-0.776,1.59-0.466c0.565,0.31,0.773,1.021,0.465,1.589c-0.922,1.687-1.778,3.419-2.543,5.148
				C57.867,142.472,57.439,142.732,56.989,142.732z M62.578,132.488c-0.219,0-0.441-0.062-0.639-0.191
				c-0.539-0.354-0.692-1.08-0.339-1.621c1.071-1.635,2.228-3.261,3.436-4.832c0.394-0.513,1.129-0.609,1.642-0.214
				c0.512,0.395,0.608,1.13,0.214,1.642c-1.173,1.523-2.293,3.1-3.331,4.687C63.336,132.302,62.962,132.488,62.578,132.488z
				 M69.694,123.234c-0.278,0-0.557-0.098-0.78-0.298c-0.48-0.43-0.524-1.171-0.092-1.653c1.303-1.458,2.682-2.896,4.101-4.273
				c0.464-0.45,1.204-0.44,1.654,0.024c0.451,0.463,0.44,1.205-0.023,1.655c-1.38,1.339-2.718,2.736-3.985,4.154
				C70.337,123.102,70.016,123.234,69.694,123.234z M78.067,115.099c-0.333,0-0.665-0.141-0.895-0.415
				c-0.419-0.493-0.356-1.232,0.138-1.649c1.492-1.263,3.057-2.497,4.646-3.668c0.52-0.383,1.253-0.272,1.636,0.249
				c0.383,0.52,0.272,1.253-0.247,1.637c-1.549,1.14-3.069,2.342-4.523,3.57C78.602,115.008,78.334,115.099,78.067,115.099z"/>
			<path fill="#52D1BD" d="M203.77,190.45c-0.084,0-0.165-0.009-0.248-0.027c-0.633-0.137-1.035-0.76-0.898-1.392
				c0.368-1.692,0.52-2.69,0.536-2.799c0.095-0.639,0.69-1.081,1.33-0.985c0.641,0.095,1.083,0.691,0.984,1.33
				c-0.026,0.189-0.188,1.221-0.561,2.949C204.794,190.075,204.309,190.45,203.77,190.45z"/>
		</g>
		<circle opacity="0.2" fill="#4076A3" cx="92.131" cy="106.78" r="38.087"/>
		<circle fill="#52D1BD" cx="96.127" cy="102.526" r="38.086"/>
		<path fill="#FFFFFF" d="M112.91,98.791c1.685,0,3.063-1.378,3.063-3.063v-0.148c0-1.685-1.378-3.063-3.063-3.063h-7.017
			l0.704-7.119c0.164-1.672-1.112-3.04-2.838-3.04l0,0c-1.725,0-3.271,1.368-3.438,3.04l-0.703,7.119h-6.674l0.703-7.119
			c0.164-1.672-1.111-3.04-2.837-3.04s-3.272,1.368-3.438,3.04l-0.704,7.119h-7.327c-1.683,0-3.063,1.378-3.063,3.063v0.148
			c0,1.685,1.381,3.063,3.063,3.063h6.707l-0.659,6.674h-6.048c-1.683,0-3.063,1.378-3.063,3.064v0.147
			c0,1.685,1.381,3.064,3.063,3.064h5.43l-0.782,7.916c-0.166,1.672,1.109,3.04,2.836,3.04c1.726,0,3.271-1.368,3.439-3.04
			l0.781-7.916h6.674l-0.781,7.916c-0.166,1.672,1.109,3.04,2.835,3.04s3.273-1.368,3.438-3.04l0.783-7.916h8.915
			c1.685,0,3.063-1.378,3.063-3.064v-0.147c0-1.685-1.378-3.064-3.063-3.064h-8.297l0.661-6.674H112.91z M98.339,105.465h-6.673
			l0.659-6.674h6.674L98.339,105.465z"/>
		<ellipse fill="#B7CAE5" cx="266.167" cy="371.939" rx="172.715" ry="9.692"/>
		<g>
			<g>
				<path fill="#92AFCC" d="M135.962,366.957c0,0-1.369,2.513,0,5.369h1.666c0.179,0,0.321,0.143,0.321,0.319v0.846
					c0,0.176-0.143,0.319-0.321,0.319h-34.604c-1.475,0-2.671-1.196-2.671-2.67v-3.001c0-1.473,1.194-2.667,2.671-2.667h34.604
					c0.179,0,0.321,0.143,0.321,0.319v0.846c0,0.177-0.143,0.319-0.321,0.319H135.962z"/>
				<path fill="#E2E2E2" d="M135.962,372.326h-32.428c-0.111,0-0.22-0.015-0.322-0.041c-0.577-0.143-1.006-0.665-1.006-1.288v-2.712
					c0-0.734,0.595-1.328,1.328-1.328h32.428c0,0-0.157,0.292-0.313,0.785C135.35,368.705,135.059,370.441,135.962,372.326z"/>
				<path fill="#FFFFFF" d="M135.962,372.326h-32.428c-0.111,0-0.22-0.015-0.322-0.041c-0.065-0.154-0.1-0.325-0.1-0.503v-2.712
					c0-0.735,0.594-1.328,1.326-1.328h31.21C135.35,368.705,135.059,370.441,135.962,372.326z"/>
			</g>
			<g>
				<path fill="#92AFCC" d="M132.208,341.943c0,0-1.368,2.513,0,5.368h1.666c0.177,0,0.32,0.143,0.32,0.319v0.846
					c0,0.176-0.144,0.319-0.32,0.319H99.27c-1.475,0-2.672-1.195-2.672-2.67v-3.002c0-1.473,1.194-2.667,2.672-2.667h34.604
					c0.177,0,0.32,0.143,0.32,0.319v0.847c0,0.176-0.144,0.319-0.32,0.319H132.208z"/>
				<path fill="#E2E2E2" d="M132.208,347.311h-32.43c-0.111,0-0.219-0.014-0.322-0.04c-0.575-0.143-1.003-0.665-1.003-1.288v-2.713
					c0-0.734,0.594-1.327,1.325-1.327h32.43c0,0-0.158,0.291-0.314,0.785C131.594,343.69,131.305,345.426,132.208,347.311z"/>
				<path fill="#FFFFFF" d="M132.208,347.311h-32.43c-0.111,0-0.219-0.014-0.322-0.04c-0.064-0.154-0.101-0.325-0.101-0.502v-2.713
					c0-0.734,0.594-1.328,1.33-1.328h31.208C131.594,343.69,131.305,345.426,132.208,347.311z"/>
			</g>
			<g>
				<path fill="#F4B545" d="M134.579,350.28c0,0-1.367,2.513,0,5.369h1.669c0.175,0,0.318,0.143,0.318,0.319v0.847
					c0,0.177-0.144,0.319-0.318,0.319H101.64c-1.474,0-2.669-1.195-2.669-2.67v-3.001c0-1.473,1.193-2.667,2.669-2.667h34.608
					c0.175,0,0.318,0.143,0.318,0.319v0.847c0,0.176-0.144,0.319-0.318,0.319H134.579z"/>
				<path fill="#E2E2E2" d="M134.579,355.649h-32.427c-0.11,0-0.22-0.014-0.324-0.04c-0.575-0.143-1.004-0.666-1.004-1.288v-2.713
					c0-0.734,0.593-1.328,1.328-1.328h32.427c0,0-0.155,0.292-0.313,0.786C133.966,352.028,133.679,353.764,134.579,355.649z"/>
				<path fill="#FFFFFF" d="M134.579,355.649h-32.427c-0.11,0-0.22-0.014-0.324-0.04c-0.064-0.154-0.1-0.326-0.1-0.503v-2.713
					c0-0.734,0.596-1.328,1.329-1.328h31.208C133.966,352.028,133.679,353.764,134.579,355.649z"/>
			</g>
			<g>
				<path fill="#B7CAE5" d="M131.821,358.619c0,0-1.367,2.513,0,5.369h1.667c0.177,0,0.32,0.143,0.32,0.319v0.847
					c0,0.176-0.144,0.319-0.32,0.319H98.881c-1.473,0-2.668-1.196-2.668-2.67v-3.001c0-1.474,1.193-2.667,2.668-2.667h34.607
					c0.177,0,0.32,0.143,0.32,0.319v0.847c0,0.176-0.144,0.319-0.32,0.319H131.821z"/>
				<path fill="#E2E2E2" d="M131.821,363.988H99.394c-0.112,0-0.22-0.014-0.322-0.04c-0.577-0.143-1.007-0.666-1.007-1.288v-2.713
					c0-0.734,0.596-1.328,1.329-1.328h32.428c0,0-0.158,0.291-0.313,0.786C131.207,360.366,130.919,362.103,131.821,363.988z"/>
				<path fill="#FFFFFF" d="M131.821,363.988H99.394c-0.112,0-0.22-0.014-0.322-0.04c-0.066-0.154-0.101-0.326-0.101-0.503v-2.712
					c0-0.734,0.594-1.328,1.327-1.328h31.21C131.207,360.366,130.919,362.103,131.821,363.988z"/>
			</g>
		</g>
		<g>
			<path opacity="0.2" fill="#4076A3" d="M340.456,293.007c16.868-22.154,26.624-50.457,25.583-81.18
				c-2.186-64.417-52.511-116.81-114.315-119.001c-68.252-2.42-124.145,55.324-122.632,126.276
				c1.395,65.579,52.739,119.138,115.654,120.696c14.305,0.354,28.031-1.978,40.801-6.476l57.962,24.249
				c5.152,2.156,10.506-2.606,9.253-8.244C349.557,334.919,344.395,311.556,340.456,293.007z"/>
			<g>
				<path fill="#FCFCFC" d="M347.709,284.88c16.866-21.255,26.623-48.408,25.581-77.885
					c-2.185-61.803-52.513-112.07-114.317-114.173c-68.25-2.321-124.143,53.079-122.632,121.152
					c1.399,62.918,52.741,114.303,115.657,115.798c14.303,0.34,28.029-1.897,40.801-6.213l57.959,23.265
					c5.154,2.068,10.508-2.5,9.254-7.909C356.809,325.092,351.646,302.677,347.709,284.88z"/>
				<g>
					<path fill="#5693DB" d="M252.225,181.618h-69.082c-3.134,0-5.699-2.564-5.699-5.7l0,0c0-3.134,2.565-5.699,5.699-5.699h69.082
						c3.135,0,5.699,2.564,5.699,5.699l0,0C257.924,179.054,255.359,181.618,252.225,181.618z"/>
					<path fill="#5693DB" d="M225.455,205.191h-42.313c-3.134,0-5.699-2.564-5.699-5.699l0,0c0-3.135,2.565-5.699,5.699-5.699
						h42.313c3.133,0,5.699,2.564,5.699,5.699l0,0C231.154,202.627,228.588,205.191,225.455,205.191z"/>
					<path fill="#5693DB" d="M335.812,205.191h-93.863c-3.134,0-5.699-2.564-5.699-5.699l0,0c0-3.135,2.565-5.699,5.699-5.699
						h93.863c3.134,0,5.698,2.564,5.698,5.699l0,0C341.51,202.627,338.945,205.191,335.812,205.191z"/>
					<path fill="#5693DB" d="M252.225,228.765h-69.082c-3.134,0-5.699-2.564-5.699-5.699l0,0c0-3.135,2.565-5.699,5.699-5.699
						h69.082c3.135,0,5.699,2.564,5.699,5.699l0,0C257.924,226.201,255.359,228.765,252.225,228.765z"/>
					<path fill="#5693DB" d="M335.812,228.765h-67.7c-3.133,0-5.699-2.564-5.699-5.699l0,0c0-3.135,2.566-5.699,5.699-5.699h67.7
						c3.134,0,5.698,2.564,5.698,5.699l0,0C341.51,226.201,338.945,228.765,335.812,228.765z"/>
					<path fill="#5693DB" d="M234.264,252.339h-51.121c-3.134,0-5.699-2.564-5.699-5.699l0,0c0-3.135,2.565-5.699,5.699-5.699
						h51.121c3.133,0,5.698,2.564,5.698,5.699l0,0C239.962,249.775,237.396,252.339,234.264,252.339z"/>
					<path fill="#5693DB" d="M301.876,252.339h-51.12c-3.134,0-5.7-2.564-5.7-5.699l0,0c0-3.135,2.566-5.699,5.7-5.699h51.12
						c3.133,0,5.698,2.564,5.698,5.699l0,0C307.574,249.775,305.009,252.339,301.876,252.339z"/>
				</g>
			</g>
			<path opacity="0.2" fill="#4076A3" d="M354.49,68.732c-41.044,1.423-74.465,35.427-75.915,77.236
				c-0.691,19.94,5.787,38.309,16.988,52.688c-2.617,12.039-6.042,27.202-8.171,36.554c-0.834,3.659,2.723,6.75,6.145,5.35
				l38.49-15.738c8.48,2.919,17.594,4.433,27.096,4.203c41.779-1.011,75.875-35.773,76.804-78.336
				C436.93,104.639,399.813,67.161,354.49,68.732z"/>
			<g>
				<path fill="#F9C358" d="M304.441,193.389c-11.201-14.115-17.68-32.147-16.987-51.722c1.45-41.042,34.87-74.422,75.914-75.819
					c45.323-1.542,82.439,35.248,81.437,80.454c-0.928,41.782-35.024,75.905-76.804,76.898c-9.5,0.226-18.615-1.26-27.095-4.126
					l-38.492,15.449c-3.421,1.374-6.976-1.66-6.145-5.252C298.398,220.093,301.826,205.207,304.441,193.389z"/>
				<g>
					<path fill="#FFFFFF" d="M363.392,126.519h-43.56c-1.978,0-3.596-1.617-3.596-3.594l0,0c0-1.976,1.618-3.594,3.596-3.594h43.56
						c1.978,0,3.593,1.617,3.593,3.594l0,0C366.984,124.902,365.369,126.519,363.392,126.519z"/>
					<path fill="#FFFFFF" d="M346.512,141.384h-26.68c-1.978,0-3.596-1.617-3.596-3.594l0,0c0-1.977,1.618-3.594,3.596-3.594h26.68
						c1.976,0,3.594,1.617,3.594,3.594l0,0C350.105,139.767,348.487,141.384,346.512,141.384z"/>
					<path fill="#FFFFFF" d="M416.1,141.384h-59.188c-1.976,0-3.593-1.617-3.593-3.594l0,0c0-1.977,1.617-3.594,3.593-3.594H416.1
						c1.977,0,3.593,1.617,3.593,3.594l0,0C419.692,139.767,418.076,141.384,416.1,141.384z"/>
					<path fill="#FFFFFF" d="M363.392,156.249h-43.56c-1.978,0-3.596-1.617-3.596-3.594l0,0c0-1.976,1.618-3.594,3.596-3.594h43.56
						c1.978,0,3.593,1.617,3.593,3.594l0,0C366.984,154.632,365.369,156.249,363.392,156.249z"/>
					<path fill="#FFFFFF" d="M416.1,156.249h-42.69c-1.975,0-3.593-1.617-3.593-3.594l0,0c0-1.976,1.618-3.594,3.593-3.594h42.69
						c1.977,0,3.593,1.617,3.593,3.594l0,0C419.692,154.632,418.076,156.249,416.1,156.249z"/>
					<path fill="#FFFFFF" d="M352.065,171.114h-32.233c-1.978,0-3.596-1.617-3.596-3.593l0,0c0-1.977,1.618-3.594,3.596-3.594
						h32.233c1.978,0,3.594,1.617,3.594,3.594l0,0C355.659,169.496,354.043,171.114,352.065,171.114z"/>
					<path fill="#FFFFFF" d="M394.7,171.114h-32.233c-1.979,0-3.595-1.617-3.595-3.593l0,0c0-1.977,1.616-3.594,3.595-3.594H394.7
						c1.978,0,3.593,1.617,3.593,3.594l0,0C398.293,169.496,396.678,171.114,394.7,171.114z"/>
				</g>
			</g>
		</g>
		<g>
			<path fill="#1F3A6F" d="M205.464,284.165c-1.761,4.11-34.055-1.761-41.101,0c-3.082,0.77-6.781-0.088-9.819-2.205
				c-0.567-0.396-1.114-0.837-1.627-1.321c-3.023-2.83-4.961-7.105-4.114-12.327c1.763-10.862,8.809-32.881,21.434-36.404
				c0,0,24.66-4.697,27.009,20.551C199.592,277.706,207.227,280.055,205.464,284.165z"/>
			<path fill="#15315E" d="M157.224,265.839c-0.07,0.321-1.873,8.326-2.68,16.121c-0.567-0.396-1.114-0.837-1.627-1.321
				C153.613,276.429,155.007,269.633,157.224,265.839z"/>
			<path fill="#15315E" d="M164.414,274.349c0,0-1.21,12.085-0.604,14.728c0.604,2.642-1.873-0.881-1.873-0.881
				S162.359,283.547,164.414,274.349z"/>
			<path fill="#15315E" d="M192.449,266.691c0,0,1.928,16-0.319,23.413c-2.249,7.413,4.651,1.761,4.651,1.761L192.449,266.691z"/>
			<path fill="#15315E" d="M186.213,285.656c0.293-0.176,3.375-9.814,3.302-13.582c-0.073-3.769,0.587,11.571-1.175,15.167
				C186.578,290.838,186.213,285.656,186.213,285.656z"/>
			<path fill="#15315E" d="M163.898,257.664c-0.072,0.293-1.188,12.977,6.967,16.984s18.723-1.131,18.281-12.433
				C188.706,250.911,163.898,257.664,163.898,257.664z"/>
			
				<ellipse transform="matrix(-0.9999 0.0117 -0.0117 -0.9999 353.0957 708.4755)" fill="#072542" cx="174.473" cy="355.272" rx="36.955" ry="13.917"/>
			<path fill="#072542" d="M183.85,354.632c0,0,6.458-16.538,12.623-16.44c6.166,0.098,18.397,0.244,18.007,2.764
				c-0.392,2.52-16.44,12.11-18.007,12.6C194.908,354.044,183.85,354.632,183.85,354.632z"/>
			<path fill="#072542" d="M147.667,348.198c0.08-1.1-0.44-14.653,16.365-13.601c16.809,1.051,39.018,1.458,38.299,7.346
				c-0.72,5.888-14.372,17.556-22.078,17.337C172.547,359.06,147.428,351.377,147.667,348.198z"/>
			<path fill="#FDC8AA" d="M156.687,337.799c-1.336,0.575-2.643,0.957-3.897,1.192c-7.407,1.386-13.129-2.381-13.129-2.381
				s-0.084-0.696-0.041-1.694c0.09-2.343,0.851-6.353,4.934-6.902C150.376,327.23,156.687,337.799,156.687,337.799z"/>
			<path fill="#FDC8AA" d="M207.982,338.771c0,0-2.966,2.223-9.988,3.068c-0.212,0.024-0.426,0.047-0.646,0.071
				c-7.485,0.784,2.79-12.524,2.79-12.524s8.072-2.202,9.054,0c0.206,0.458,0.346,1.068,0.425,1.761
				C209.922,333.78,209.349,337.603,207.982,338.771z"/>
			<path fill="#F4B545" d="M213.063,335.465c0,0-2.844,2.756-5.08,3.306c0,0,0.332-0.725,0.581-1.764
				c0.56-2.343,0.698-6.285-4.335-7.175c-0.407-0.073-0.851-0.126-1.331-0.156c0,0,1.376-1.107,0.533-4.263
				c-0.83-3.106-5.645-18.551-5.796-19.032l-0.002-0.012c0,0,0.002,0.009,0.002,0.026l0.007,0.032
				c0.084,0.602,0.681,5.657-2.904,10.601c0,0,4.466,22.083-0.3,22.653c-4.476,0.534-17.853,2.61-36.121-0.053
				c-1.166-0.17-2.354-0.358-3.561-0.569c0,0,0.435-4.424,1.379-7.953c0.946-3.526,1.935-8.995-1.676-21.047
				c-0.003-0.003-0.003-0.006-0.003-0.006s-5.411,11.755-5.822,20.439c0,0-6.138-2.12-8.974,6.118c0,0-5.063-1.127-2.605-10.093
				c2.461-8.969,4.394-14.327,4.38-20.53c-0.01-6.201,3.226-14.277,5.382-15.877c2.157-1.597,5.407-5.105,12.045-4.906
				c6.637,0.197,31.743-2.102,31.743-2.102s9.057-0.643,11.757,3.068c2.7,3.711,5.535,8.226,7.317,16.531
				c1.028,4.797,3.827,13.452,4.955,20.789C215.455,328.859,215.382,333.524,213.063,335.465z"/>
			<path fill="#FDC8AA" d="M192.13,283.06c0,0-1.207,11.445-13.16,12.901c-11.952,1.457-18.874-5.466-20.11-10.757
				c0,0,7.438-0.076,12.168-10.921c0.303-0.69,0.593-1.426,0.869-2.208c4.627-13.047,9.31-0.655,9.31-0.655s0.667,2.836,2.689,5.757
				C185.613,279.664,188.027,282.135,192.13,283.06z"/>
			<path fill="#FBB188" d="M183.896,277.177c-6.165,0.161-10.285-1.356-12.868-2.895c0.303-0.69,0.593-1.426,0.869-2.208
				c4.627-13.047,9.31-0.655,9.31-0.655S181.873,274.256,183.896,277.177z"/>
			<path fill="#FDC8AA" d="M190.705,258.211c0,6.18-3.378,11.497-8.228,13.863c-1.627,0.799-3.421,1.262-5.31,1.312
				c-0.116,0.006-0.237,0.006-0.356,0.006c-7.676,0-13.896-6.796-13.896-15.181s6.22-15.181,13.896-15.181
				c3.796,0,7.233,1.664,9.743,4.359C189.117,250.141,190.705,253.975,190.705,258.211z"/>
			<path fill="#FBB188" d="M190.705,258.211c0,6.18-3.378,11.497-8.228,13.863c7.403-4.143,5.78-17.095,4.077-24.685
				C189.117,250.141,190.705,253.975,190.705,258.211z"/>
			<path fill="#1F3A6F" d="M161.937,249.684c0,0,19.767,8.198,29.748,2.827c9.982-5.371-10.96-18.713-19.179-12.728
				C164.286,245.77,161.937,249.684,161.937,249.684z"/>
			<path fill="#ECF3FE" d="M186.541,365.851c0.03,1.424,1.297,2.152,2.723,2.66c0.271,0.094,0.546,0.182,0.818,0.264
				c0.582,0.176,1.151,0.329,1.645,0.487c1.957,0.634,4.083,2.314,4.16,2.446c0.043,0.073,1.359,0.405,2.813,0.49
				c1.138,0.064,2.356-0.018,3.108-0.49c1.071-0.675,2.126-5.625,2.73-9.33c0.362-2.21,0.566-3.978,0.52-4.125
				c0,0-1.183-0.076-2.909-0.161c-0.822-0.042-1.768-0.085-2.77-0.121c-2.125-0.082-4.5-0.135-6.455-0.094
				c-1.723,0.035-3.122,0.144-3.74,0.375c-0.677,0.255-1.189,0.808-1.573,1.518C186.671,361.521,186.506,364.24,186.541,365.851z"/>
			<path fill="#E59D29" d="M205.232,325.685c-0.27,1.803-0.629,3.145-1.004,4.146c-0.408-0.073-0.852-0.126-1.333-0.156
				c0,0,1.376-1.107,0.535-4.263c-0.831-3.106-5.646-18.551-5.796-19.033l-0.004-0.012
				C197.631,306.368,206.21,319.127,205.232,325.685z"/>
			<path fill="#E59D29" d="M158.314,339.628c-1.164-0.17-2.354-0.358-3.56-0.57c0,0,0.435-4.424,1.379-7.953
				c0.945-3.526,1.934-8.995-1.676-21.047C154.676,310.349,163.626,322.483,158.314,339.628z"/>
			<path fill="#1B345E" d="M145.585,338.094c0,0-20.649-5.38-24.024,0.539c-3.374,5.919-1.713,11.89,3.691,15.665
				c5.406,3.775,10.647,12.09,57.815,9.686l1.867-7.933c0,0-23.74-5.725-34.469-11.01v-5.183
				C150.466,339.859,149.501,338.971,145.585,338.094z"/>
			<path fill="#FDC8AA" d="M171.324,360.552l-16.979,2.373c0,0,0.587,9.59,0.759,9.59c0.171,0,22.558-4.746,22.558-4.746
				L171.324,360.552z"/>
			<path fill="#9FB8D6" d="M198.699,372.198c1.138,0.064,2.356-0.018,3.108-0.49c1.711-1.078,3.378-13.064,3.25-13.455
				c0,0-1.183-0.076-2.909-0.161C201.522,362.727,199.637,369.174,198.699,372.198z"/>
			<path fill="#ECF3FE" d="M149.098,374.512c0.141,0.279,1.527,0.35,2.813,0.126c0.78-0.135,1.527-0.379,1.934-0.752
				c1.077-0.992,7.293-1.732,7.293-1.732s0.258-0.141,0.649-0.405c1.375-0.925,4.373-3.37,3.458-6.597
				c-1.173-4.148-6.383-4.11-6.643-4.11c0,0-3.304-0.846-4.037-1.433c-0.195-0.159-0.61-0.259-1.125-0.305
				c-0.538-0.047-1.191-0.035-1.823,0.038c-1.012,0.115-1.972,0.391-2.337,0.819C148.473,361.116,148.878,374.068,149.098,374.512z"
				/>
			<path opacity="0.5" fill="#587189" d="M186.541,365.851c0.03,1.424,1.297,2.152,2.723,2.66c0.271,0.094,0.546,0.182,0.818,0.264
				l14.456-6.397c0.362-2.21,0.566-3.978,0.52-4.125c0,0-1.183-0.076-2.909-0.161c-0.822-0.042-1.768-0.085-2.77-0.121
				c-2.125-0.082-4.5-0.135-6.455-0.094c-1.723,0.035-3.122,0.144-3.74,0.375c-0.677,0.255-1.189,0.808-1.573,1.518
				C186.671,361.521,186.506,364.24,186.541,365.851z"/>
			<path fill="#1F3A6F" d="M195.397,339.464c0.39-0.196,22.203-9.187,28.765-8.998c6.562,0.19,12.593,12.855,5.369,18.657
				c-7.223,5.802-31.222,14.483-57.484,22.816c0,0-4.689-5.42-5.966-11.535c0,0,25.386-10.837,30.377-13.993L195.397,339.464z"/>
			<path fill="#D7E3F4" d="M149.098,374.512c0.141,0.279,1.527,0.35,2.813,0.126c0.78-0.135,1.527-0.379,1.934-0.752
				c1.077-0.992,7.293-1.732,7.293-1.732s0.258-0.141,0.649-0.405c-9.532-0.305-8.883-9.25-8.347-12.445
				c-0.538-0.047-1.191-0.035-1.823,0.038c-1.012,0.115-1.972,0.391-2.337,0.819C148.473,361.116,148.878,374.068,149.098,374.512z"
				/>
			<path fill="#9FB8D6" d="M149.098,374.512c0.141,0.279,1.527,0.35,2.813,0.126c-0.272-1.392-0.609-3.347-0.859-5.516
				c-0.39-3.4,0.281-8.044,0.565-9.779c-1.012,0.115-1.972,0.391-2.337,0.819C148.473,361.116,148.878,374.068,149.098,374.512z"/>
			<g>
				<path fill="#869FB7" d="M204.307,317.384v26.143c0,1.938-1.587,3.523-3.524,3.523h-50.075c-0.957,0-1.827-0.385-2.463-1.01
					c-0.653-0.64-1.061-1.532-1.061-2.513v-26.143c0-1.938,1.586-3.523,3.523-3.523h50.075c0.929,0,1.776,0.364,2.406,0.96
					C203.878,315.461,204.307,316.374,204.307,317.384z"/>
				<circle fill="#495A70" cx="152.375" cy="319.528" r="2.083"/>
				<path fill="#728DA3" d="M204.307,317.384v26.143c0,1.938-1.587,3.523-3.524,3.523h-50.075c-0.957,0-1.827-0.385-2.463-1.01
					c37.92-3.672,50.672-20.002,54.944-31.219C203.878,315.461,204.307,316.374,204.307,317.384z"/>
			</g>
		</g>
		<g>
			<path fill="#FFFFFF" d="M118.492,325.326l-0.048,0.549c0,0,0,0.004,0,0.01l-0.258,2.977l-0.176,2.043l-0.369,4.207l-0.465,5.345
				h-8.142l-0.463-5.345l-0.546-6.25l-0.257-2.987l-0.049-0.549H118.492z"/>
			<polygon fill="#F4B545" points="118.522,328.862 118.319,331.053 117.938,335.112 108.276,335.112 107.689,328.862 			"/>
			<path fill="#1F3A6F" d="M118.082,323.902v-0.138c0-0.773-0.625-1.398-1.397-1.398h-7.155c-0.772,0-1.399,0.625-1.399,1.398v0.138
				h-1.067v1.973h1.067h9.952h1.067v-1.973H118.082z"/>
			<path opacity="0.2" fill="#A8A8A8" d="M118.522,328.862l-0.203,2.191c-0.097-0.046-0.196-0.095-0.309-0.148
				c-0.987-0.477-2.562-1.246-4.178-2.043c-2.956-1.45-6.063-2.987-6.063-2.987h10.675c0,0,0,0.004,0,0.01l-0.258,2.977H118.522z"/>
		</g>
	</g>
	<circle fill="#52D1BD" cx="254.837" cy="65.802" r="11.195"/>
	<circle fill="#52D1BD" cx="407.654" cy="283.06" r="9.661"/>
	<circle fill="#B7CAE5" cx="450.168" cy="324.487" r="4.736"/>
	<circle fill="#B7CAE5" cx="316.238" cy="6.893" r="6.893"/>
	<circle fill="#52D1BD" cx="488.714" cy="149.061" r="10.669"/>
	<circle fill="#B7CAE5" cx="118.492" cy="27.855" r="10.668"/>
	<circle fill="#B7CAE5" cx="24.619" cy="189.162" r="7.543"/>
</g>
</svg>
